<?xml version="1.0" encoding="utf-8"?>
<!-- Generator: Adobe Illustrator 25.2.1, SVG Export Plug-In . SVG Version: 6.00 Build 0)  -->
<svg version="1.1" id="Capa_1" xmlns="http://www.w3.org/2000/svg" xmlns:xlink="http://www.w3.org/1999/xlink" x="0px" y="0px"
	 viewBox="0 0 512 512" style="enable-background:new 0 0 512 512;" xml:space="preserve">
<style type="text/css">
	.st0{fill:#FFFFFF;}
</style>
<g>
	<g>
		<path class="st0" d="M271.3,234.3v-77.1c16.5,2.8,32,9.5,45.3,19.7c2.7,1.8,5.8,2.8,9,2.8c10.3,0,18.7-8.3,18.8-18.6
			c0-4.4-1.7-8.7-4.8-11.8c-19.2-16.4-43.3-26.1-68.6-27.6V95.9c0-7.4-6-13.4-13.4-13.4c-0.2,0-0.3,0-0.5,0
			c-7.5-0.1-13.7,5.9-13.8,13.4v25c-49.3,3.5-82.8,33.9-82.8,74.5c0,49.7,42.3,63.5,82.8,74.5v87.6c-21.4-2.9-41.5-11.7-58-25.6
			c-3.1-2.5-7-3.9-11-3.9c-10.1,0.7-17.9,9.2-17.7,19.3c0,4.4,1.7,8.7,4.8,11.8c22.6,20.4,51.7,32.1,82.1,33.1v24.1
			c0,0.2,0,0.3,0,0.5c0.4,7.5,6.7,13.3,14.2,12.9c7.4,0,13.4-6,13.4-13.4v-24.5c59.8-3.9,83.9-40.3,83.9-78.8
			C355.2,261,311.8,245.3,271.3,234.3z M243.7,227.3c-23.9-7-42.5-14.2-42.5-34.6s16.9-35,42.5-37V227.3z M271.3,357.8v-79.7
			c24.7,7,44,16.4,43.8,39.4C315.1,334.2,303.7,353.9,271.3,357.8z"/>
	</g>
</g>
</svg>
