<?xml version="1.0" encoding="utf-8"?>
<!-- Generator: Adobe Illustrator 25.2.1, SVG Export Plug-In . SVG Version: 6.00 Build 0)  -->
<svg version="1.1" id="Capa_1" xmlns="http://www.w3.org/2000/svg" xmlns:xlink="http://www.w3.org/1999/xlink" x="0px" y="0px"
	 viewBox="0 0 512 512" style="enable-background:new 0 0 512 512;" xml:space="preserve">
<style type="text/css">
	.st0{fill:#209CEE;}
	.st1{fill:#FFFFFF;}
</style>
<rect class="st0" width="512" height="512.1"/>
<path class="st1" d="M256,91.5c-68.1,0-123.3,55.7-123.3,124.3c0,97.3,111.7,197.8,116.5,202c1.9,1.8,4.4,2.6,6.8,2.6
	s4.9-0.8,6.8-2.6c4.8-4.3,116.5-104.9,116.5-202.1C379.3,147.2,324.1,91.5,256,91.5L256,91.5z M256,283.5
	c-37.7,0-68.6-30.8-68.6-68.6s30.8-68.6,68.6-68.6s68.6,30.8,68.6,68.6S293.7,283.5,256,283.5z"/>
</svg>
